<svg xmlns="http://www.w3.org/2000/svg" width="210" height="150" viewBox="0 0 210 150">
  <title>Fix logo</title>
  <linearGradient x2="1" y2="1" id="gradient">
    <stop offset="0" stop-color="#3023AE" />
    <stop offset="1" stop-color="#C96DD8" />
  </linearGradient>
  <path fill="url(#gradient)" fill-rule="evenodd" d="M103.953 65.488l-8.6 8.577c-3.635 3.625-9.527 3.625-13.162 0a9.264 9.264 0 0 1 0-13.127l8.6-8.577 15.482-15.437 8.226-8.204c3.635-3.626 9.527-3.627 13.162 0a9.264 9.264 0 0 1 0 13.126l-8.226 8.203-15.48 15.438zm1.72-.224l8.825 8.8c3.635 3.626 9.527 3.626 13.162 0a9.263 9.263 0 0 0 0-13.126l-8.825-8.8-13.162 13.126zm-1.495-27.744l-8.825-8.8c-3.635-3.626-9.528-3.626-13.162 0a9.263 9.263 0 0 0 0 13.126l8.825 8.8 13.163-13.126zm-8.825 15.065l.748-.746 8.526 8.502-.748.746-8.525-8.503zm10.17-10.143l.75-.746 8.524 8.503-.748.744-8.526-8.502zm-.63 11.118a1.13 1.13 0 0 0-.315 2.235 1.13 1.13 0 0 0 .315-2.235zm3.395-3.387a1.13 1.13 0 1 0-.315 2.235 1.13 1.13 0 1 0 .315-2.235zm-6.54.25a1.13 1.13 0 1 0-.315 2.235 1.13 1.13 0 1 0 .315-2.235zm3.396-3.386a1.13 1.13 0 0 0-.315 2.235 1.13 1.13 0 0 0 .315-2.235zm-30.5-11.56c-1.864 0-2.796.854-2.796 2.564v9.76c0 2.1-.993 3.33-2.977 3.69 1.985.33 2.978 1.543 2.978 3.643v10.57c0 .78.218 1.32.654 1.62.436.3 1.27.45 2.503.45v4.182H73.47c-4.088 0-6.133-1.98-6.133-5.938v-9.715c0-.99-.18-1.687-.54-2.092-.362-.404-.933-.607-1.715-.607H64V49.42h1.082c.782 0 1.353-.21 1.714-.63.36-.42.54-1.14.54-2.16v-9.354c0-3.958 2.046-5.937 6.135-5.937h1.535v4.182c-.09-.03-.21-.045-.36-.045zm62.265 36.478h-1.535v-4.183c1.233 0 2.067-.15 2.503-.45.436-.3.654-.84.654-1.62v-10.57c0-2.1.992-3.313 2.977-3.643-1.986-.36-2.978-1.59-2.978-3.69v-9.76c0-.93-.248-1.596-.744-2-.496-.406-.985-.608-1.466-.608h-.135l-.812.09V31.34h1.534c4.088 0 6.132 1.978 6.132 5.936v9.355c0 1.02.18 1.74.542 2.16.36.42.932.63 1.713.63h1.083v4.183h-1.083c-.78 0-1.353.203-1.713.607-.36.405-.542 1.102-.542 2.092v9.715c0 3.96-2.044 5.938-6.133 5.938z" />
  <path fill="#404040" d="M41.798 98.23v1.97h6.263v4.025H41.8V124h-5.01v-19.775H33.79V100.2h2.997v-1.835c0-2.506.753-4.497 2.26-5.973 1.506-1.476 3.325-2.215 5.457-2.215 2.133 0 4.08.79 5.84 2.372l-2.06 3.533c-.983-1.044-2.012-1.566-3.086-1.566-1.074 0-1.91.336-2.505 1.007-.597.67-.895 1.573-.895 2.706zM59.204 124h-5.01v-23.8h5.01V124zm-5.637-30.78c0-.865.313-1.61.94-2.237.626-.627 1.37-.94 2.236-.94.865 0 1.61.313 2.237.94.626.626.94 1.372.94 2.237s-.314 1.61-.94 2.237c-.626.626-1.372.94-2.237.94s-1.61-.314-2.237-.94c-.626-.627-.94-1.372-.94-2.237zm17.987 6.98l5.1 7.828 5.28-7.83h5.95l-8.322 11.633 8.68 12.17h-6.174l-5.682-7.92-5.548 7.92h-5.86l8.455-12.124-8.008-11.677h6.13zM93.344 121c0-.924.32-1.707.963-2.348.64-.642 1.424-.962 2.348-.962.925 0 1.715.32 2.37.962.658.64.986 1.424.986 2.35 0 .923-.327 1.713-.984 2.37a3.232 3.232 0 0 1-2.37.984c-.925 0-1.708-.328-2.35-.984a3.27 3.27 0 0 1-.96-2.37V121zm25.057 3.356c-3.31 0-6.158-1.126-8.544-3.378-2.386-2.252-3.58-5.197-3.58-8.836 0-3.64 1.246-6.6 3.736-8.88 2.49-2.282 5.526-3.423 9.105-3.423 3.58 0 6.606 1.24 9.082 3.714l-2.954 3.624c-2.058-1.79-4.13-2.684-6.22-2.684-2.087 0-3.898.693-5.434 2.08-1.537 1.387-2.305 3.177-2.305 5.37 0 2.19.76 4.048 2.282 5.57 1.52 1.52 3.392 2.28 5.614 2.28s4.317-1.014 6.286-3.042l2.952 3.222c-2.893 2.922-6.233 4.384-10.02 4.384zm30.83-2.036c-1.642 1.357-3.745 2.036-6.31 2.036-1.73 0-3.527-.313-5.39-.94-1.865-.626-3.513-1.506-4.944-2.64l2.416-3.89c2.773 2.086 5.458 3.13 8.053 3.13 1.133 0 2.028-.26 2.684-.783.655-.522.983-1.185.983-1.99 0-1.194-1.58-2.267-4.742-3.222a5.49 5.49 0 0 0-.536-.18c-4.95-1.34-7.427-3.578-7.427-6.71 0-2.207.858-3.974 2.573-5.3 1.715-1.328 3.944-1.992 6.688-1.992 2.744 0 5.34.806 7.785 2.417l-1.88 3.713c-1.938-1.282-4.04-1.924-6.307-1.924-1.193 0-2.163.217-2.908.65-.746.432-1.12 1.08-1.12 1.945 0 .777.39 1.344 1.164 1.7.537.27 1.29.523 2.26.762a39.5 39.5 0 0 1 2.572.716c.746.238 1.47.507 2.17.805.7.298 1.454.716 2.26 1.253 1.61 1.074 2.415 2.744 2.415 5.01 0 2.267-.82 4.08-2.46 5.436zm23.936 0c-1.64 1.357-3.743 2.036-6.308 2.036-1.73 0-3.527-.313-5.39-.94-1.865-.626-3.513-1.506-4.944-2.64l2.415-3.89c2.773 2.086 5.458 3.13 8.052 3.13 1.134 0 2.03-.26 2.685-.783.656-.522.984-1.185.984-1.99 0-1.194-1.58-2.267-4.74-3.222a5.49 5.49 0 0 0-.538-.18c-4.95-1.34-7.427-3.578-7.427-6.71 0-2.207.858-3.974 2.573-5.3 1.715-1.328 3.944-1.992 6.688-1.992 2.744 0 5.34.806 7.785 2.417l-1.878 3.713c-1.94-1.282-4.042-1.924-6.31-1.924-1.192 0-2.16.217-2.907.65-.745.432-1.118 1.08-1.118 1.945 0 .777.388 1.344 1.163 1.7.537.27 1.29.523 2.26.762.97.24 1.826.477 2.572.716.746.238 1.47.507 2.17.805.7.298 1.454.716 2.26 1.253 1.61 1.074 2.415 2.744 2.415 5.01 0 2.267-.82 4.08-2.46 5.436z" />
</svg>
